<svg xmlns="http://www.w3.org/2000/svg" xmlns:xlink="http://www.w3.org/1999/xlink" version="1.1" x="0px" y="0px" viewBox="0 0 64 80" style="enable-background:new 0 0 64 64;" xml:space="preserve"><g><path d="M44,30c-2.373,0-4.47,1.189-5.736,3H34v-6.417c0-3.147-2.121-5.925-5.158-6.754L23,18.236v-1.5   c1.811-1.267,3-3.364,3-5.736V8c0-3.86-3.14-7-7-7s-7,3.14-7,7v3c0,2.373,1.189,4.47,3,5.736v1.5l-5.842,1.593   C6.121,20.658,4,23.436,4,26.583V33H1v30h62V33H49.736C48.47,31.189,46.373,30,44,30z M44,32c2.757,0,5,2.243,5,5v3   c0,1.774-0.958,3.432-2.501,4.326L46,44.615v4.129l7.862,2.358C55.141,51.486,56,52.641,56,53.976V61H32v-7.024   c0-1.335,0.859-2.49,2.138-2.874L42,48.744v-4.129l-0.499-0.289C39.958,43.432,39,41.774,39,40v-3C39,34.243,41.243,32,44,32z    M28.315,21.759C30.485,22.351,32,24.334,32,26.583V33h-4v-8h-2v8h-6V21.867c1.173-0.311,1.977-1.113,2.435-1.712L28.315,21.759z    M14,11V8c0-2.757,2.243-5,5-5s5,2.243,5,5v3c0,2.757-2.243,5-5,5S14,13.757,14,11z M19,18c0.695,0,1.366-0.105,2-0.295v1.019   C20.752,19.108,20.063,20,19,20c-1.063,0-1.752-0.893-2-1.275v-1.019C17.634,17.895,18.305,18,19,18z M6,26.583   c0-2.249,1.515-4.232,3.685-4.824l5.88-1.604c0.458,0.599,1.263,1.401,2.435,1.712V33h-6v-8h-2v8H6V26.583z M3,35h34.295   C37.105,35.634,37,36.305,37,37v3c0,2.288,1.136,4.436,3,5.738v1.518l-6.437,1.931C31.432,49.826,30,51.751,30,53.976V61H3V35z    M61,35v26h-3v-7.024c0-2.225-1.432-4.15-3.563-4.79L48,47.256v-1.518c1.864-1.302,3-3.451,3-5.738v-3c0-0.695-0.105-1.366-0.295-2   H61z"/><rect x="22" y="25" width="2" height="2"/><rect x="22" y="29" width="2" height="2"/><path d="M10,37v22h18V37H10z M26,57H12V39h14V57z"/><rect x="14" y="41" width="10" height="2"/><rect x="14" y="49" width="10" height="2"/><rect x="14" y="53" width="10" height="2"/><rect x="14" y="45" width="4" height="2"/><rect x="20" y="45" width="4" height="2"/><rect x="43" y="7" width="2" height="2"/><rect x="47" y="7" width="2" height="2"/><rect x="51" y="7" width="2" height="2"/><rect x="55" y="7" width="2" height="2"/><path d="M43.622,14.99l-1.068,4.989L51.266,15H56c3.86,0,7-3.14,7-7s-3.14-7-7-7H44c-3.86,0-7,3.14-7,7   C37,11.733,39.938,14.793,43.622,14.99z M44,3h12c2.757,0,5,2.243,5,5s-2.243,5-5,5h-5.266l-5.288,3.021L46.094,13H44   c-2.757,0-5-2.243-5-5S41.243,3,44,3z"/></g><text x="0" y="79" fill="#000000" font-size="5px" font-weight="bold" font-family="'Helvetica Neue', Helvetica, Arial-Unicode, Arial, Sans-serif">Created by Eucalyp</text><text x="0" y="84" fill="#000000" font-size="5px" font-weight="bold" font-family="'Helvetica Neue', Helvetica, Arial-Unicode, Arial, Sans-serif">from the Noun Project</text></svg>