<svg xmlns="http://www.w3.org/2000/svg" xmlns:xlink="http://www.w3.org/1999/xlink" viewBox="0 0 32 30" version="1.1" x="0px" y="0px"><title>team-ic</title><desc>Created with Sketch.</desc><g stroke="none" stroke-width="1" fill="none" fill-rule="evenodd"><g transform="translate(0.000000, -4.000000)"><rect x="0" y="0" width="32" height="32"/><g transform="translate(1.000000, 12.000000)" fill="#000000" fill-rule="nonzero"><path d="M1.5,5.54545455 C1.5,5.07558764 1.73009046,4.711283 2.19515315,4.23596839 C2.26510476,4.16447476 2.27435843,4.15533441 2.46068061,3.97243023 C2.8076081,3.63186698 2.96117124,3.45567553 3.05474326,3.27252157 C3.25989213,2.87097177 3.6863399,2.7787868 4.21605092,2.85412404 L4.36222104,2.89848087 C4.46859433,2.94960039 4.58100641,3.00235416 4.71730401,3.06535013 C4.78414833,3.09624518 5.11507539,3.24815433 5.20714164,3.29081507 C6.32009627,3.80652496 6.86377498,4.1424477 7.2281475,4.6746683 C7.40332196,4.95398605 7.5,5.24646063 7.5,5.54545455 C7.5,6.4839459 7.05215065,7.348735 6.30929959,7.90238752 C6.10893688,8.14101949 6.01011828,8.49671138 6.0756522,8.78731127 C6.83718061,8.65596374 7.54109294,8.41523755 8.19164938,8.11848038 C7.80135394,7.07244365 7.4359889,5.18181153 7.35043532,3.98654147 C7.22990956,2.30217973 5.9870871,1.03222043 4.40730469,1.03222043 C2.82754351,1.03222043 1.58470105,2.30221533 1.46417316,3.98655403 C1.37861408,5.18182956 1.01322592,7.07257747 0.622951419,8.11850348 C1.35034481,8.45034589 2.12327014,8.70662912 2.91599889,8.82074085 C2.99737686,8.52441216 2.89881574,8.15025286 2.69070041,7.90238752 C1.94784935,7.348735 1.5,6.4839459 1.5,5.54545455 Z M3.16121155,4.68605227 C2.98176955,4.86220247 2.97288432,4.87097889 2.90992628,4.93532479 C2.61725818,5.23444452 2.5,5.42010062 2.5,5.54545455 C2.5,6.17650379 2.80773239,6.75730187 3.32029239,7.12395371 L3.39685438,7.19154544 C3.97341333,7.81637905 4.17561639,8.86346506 3.62579275,9.61761323 L3.47601309,9.82305376 L3.22176959,9.82305376 L2.86495617,9.81851044 C1.88297259,9.6852208 1.01397629,9.39701549 0.197030092,9.02333594 C-0.279815777,8.8051608 -0.497978994,8.26128249 -0.315164248,7.77216044 C0.0389985332,6.82503739 0.387431563,5.0229029 0.46672446,3.9151671 C0.623326617,1.72670205 2.2815803,0.03222043 4.40730469,0.03222043 C6.53304778,0.03222043 8.19128502,1.72666502 8.34788425,3.91515778 C8.42717451,5.02292294 8.77560321,6.82501698 9.12980041,7.77223209 C9.31259958,8.26131251 9.09439656,8.80520081 8.61747111,9.02335862 C7.80907553,9.39312379 6.92832298,9.68473198 5.88234375,9.82305376 L5.52398691,9.82305376 L5.37420725,9.61761323 C4.82438361,8.86346506 5.02658667,7.81637905 5.60314562,7.19154544 L5.67970761,7.12395371 C6.19226761,6.75730187 6.5,6.17650379 6.5,5.54545455 C6.5,5.44961935 6.46236447,5.33576271 6.39216745,5.22304821 C6.18001009,4.91358984 5.72799049,4.63430052 4.78671389,4.19814109 C4.69668027,4.1564222 4.36634741,4.00478582 4.2977552,3.9730829 C4.18687566,3.92183502 4.09080703,3.87691683 4.00042549,3.83391846 C3.91888737,3.82199194 3.90378178,3.81070026 3.94214902,3.73363732 C3.78458001,4.04122785 3.58509459,4.26994519 3.16121155,4.68605227 Z"/><path d="M5.93824233,3.64819437 C6.01204039,3.68728956 6.08331747,3.72642765 6.1520533,3.76570108 C6.23874426,3.81511462 6.32013037,3.86409408 6.39728802,3.91342619 C7.11937705,4.37371051 7.49742102,4.86759326 7.49998685,5.53857163 C7.5,6.0376558 7.37791723,6.50144102 7.16206409,6.90926116 C6.95682813,7.30303729 6.64720575,7.66138242 6.26151049,7.93728355 L5.97060905,7.53061863 L6.33807248,7.86969182 C6.1185399,8.10760562 6.00705325,8.48312 6.0756522,8.78731127 C6.83718061,8.65596374 7.54109294,8.41523755 8.19164938,8.11848038 C7.80135394,7.07244365 7.4359889,5.18181153 7.35043532,3.98654147 C7.22990956,2.30217973 5.9870871,1.03222043 4.40730469,1.03222043 C3.50440555,1.03222043 3.40720724,2.43953249 4.36222104,2.89848088 C4.41540769,2.92404064 4.47010403,2.95000896 4.52854092,2.97746184 C4.5869778,3.00491472 4.64915522,3.03385215 4.71730402,3.06535013 C4.75072621,3.08079767 4.8501691,3.12649874 4.95276472,3.17367052 C5.05536034,3.2208423 5.16110869,3.26948478 5.20714183,3.29081516 C5.35879389,3.36108619 5.48985829,3.42303677 5.60886503,3.4811167 C5.72787178,3.53919664 5.83482087,3.59340593 5.93824232,3.64819437 C6.01271238,3.68764555 6.08423885,3.72688564 6.15292611,3.7661089 C6.23776255,3.81467258 6.31952055,3.86385453 6.39728802,3.91342619 C6.76117168,4.14608167 7.03100721,4.38658073 7.2281475,4.6746683 C7.40197909,4.95184482 7.49851314,5.24197723 7.49998296,5.53857951 C7.5,6.02467878 7.38322525,6.48468546 7.17002669,6.89386138 C6.66140908,7.8551691 5.65629487,8.5 4.5,8.5 C2.84517847,8.5 1.5,7.17927933 1.5,5.54545455 C1.5,5.07558764 1.73009046,4.711283 2.19515315,4.23596839 C2.26510476,4.16447476 2.27435843,4.15533441 2.46068061,3.97243023 C2.8076081,3.63186698 2.96117124,3.45567553 3.05474326,3.27252157 C3.25989213,2.87097177 3.6863399,2.7787868 4.21605092,2.85412404 L4.36222104,2.89848088 C4.41540769,2.92404064 4.47010403,2.95000896 4.52854092,2.97746184 C4.5869778,3.00491472 4.64915522,3.03385215 4.71730402,3.06535013 C4.75072621,3.08079767 4.8501691,3.12649874 4.95276472,3.17367052 C5.05536034,3.2208423 5.16110869,3.26948478 5.20714183,3.29081516 C5.35879389,3.36108619 5.48985829,3.42303677 5.60886504,3.48111671 C5.72787178,3.53919664 5.83482087,3.59340593 5.93824233,3.64819437 Z M5.95433266,4.819545 C5.81972991,4.72728338 5.6589024,4.63186722 5.47011496,4.53185537 C5.37611532,4.48205822 5.27740451,4.43205692 5.16612389,4.37779128 C5.05484328,4.32352564 4.93099288,4.26499566 4.78671408,4.19814118 C4.74169726,4.17728173 4.63660561,4.1289429 4.53419413,4.08185606 C4.43178265,4.03476923 4.33205134,3.98893438 4.29775521,3.97308291 C4.15727167,3.90815223 4.04056361,3.85338241 3.92907446,3.79980437 L4.14564775,3.34914262 L4.07524458,3.8441612 C3.97389043,3.82974628 3.92578361,3.82864353 3.92227267,3.79652168 C3.91866539,3.79477331 3.9150661,3.79301697 3.91147479,3.79125271 C3.75683988,4.07271915 3.55669268,4.29782607 3.16121155,4.68605227 C2.98176955,4.86220247 2.97288432,4.87097889 2.90992628,4.93532479 C2.61725818,5.23444452 2.5,5.42010062 2.5,5.54545455 C2.5,6.62284581 3.39339779,7.5 4.5,7.5 C4.94155793,7.5 5.34916986,7.36034122 5.67962217,7.12402915 C6.19226761,6.75730187 6.5,6.17650379 6.5,5.54545455 C6.5,5.44252089 6.46794318,5.34018006 6.3999691,5.23580253 C6.39741503,5.23155015 6.39481439,5.22729837 6.39216745,5.22304821 C6.302637,5.09245672 6.15871696,4.95963743 5.95433266,4.819545 C5.82163157,4.72843293 5.66031397,4.63261501 5.47011495,4.53185537 C5.37611532,4.48205822 5.27740451,4.43205692 5.16612389,4.37779128 C5.05484328,4.32352564 4.93099288,4.26499566 4.78671408,4.19814118 C4.74169726,4.17728173 4.63660561,4.1289429 4.53419413,4.08185606 C4.43178265,4.03476923 4.33205134,3.98893438 4.29775521,3.97308291 C4.15727167,3.90815223 4.04056361,3.85338241 3.92907446,3.79980436 C3.92680405,3.79871328 3.92453678,3.79761905 3.92227267,3.79652168 C3.92075048,3.78259512 3.92761095,3.76283792 3.94214902,3.73363732 C3.9334506,3.7505344 3.92258006,3.77103889 3.91147479,3.79125271 C2.11175169,2.90712171 2.31707842,0.03222043 4.40730469,0.03222043 C6.53304778,0.03222043 8.19128502,1.72666502 8.34788425,3.91515778 C8.42717451,5.02292294 8.77560321,6.82501698 9.12980041,7.77223209 C9.31259958,8.26131251 9.09439656,8.80520081 8.61747111,9.02335862 C7.80907553,9.39312379 6.92832298,9.68473198 5.88234375,9.82305376 L5.52398691,9.82305376 L5.37420725,9.61761323 C4.82438361,8.86346506 5.02658667,7.81637905 5.60314562,7.19154544 L5.67962217,7.12402915 C6.17732677,6.76811211 6.5,6.19294367 6.5,5.54545455 C6.5,5.45323304 6.46514922,5.34432354 6.3999691,5.23580253 C6.31320925,5.10257853 6.16793615,4.96603652 5.9561226,4.82070879 L5.95433266,4.819545 Z"/><path d="M6.56485121,10.4018397 C5.61878207,10.1349298 5.09532875,9.54097412 5.04186184,8.77301592 C5.00192246,8.19935689 5.24469455,7.58000923 5.60314562,7.19154544 L5.67970761,7.12395371 C6.19226761,6.75730187 6.5,6.17650379 6.5,5.54545455 C6.5,5.44961935 6.46236447,5.33576271 6.39216745,5.22304821 C6.18001009,4.91358984 5.72799049,4.63430052 4.78671389,4.19814109 C4.69668027,4.1564222 4.36634741,4.00478582 4.2977552,3.9730829 C4.18687566,3.92183502 4.09080703,3.87691683 4.00042549,3.83391846 C3.91888737,3.82199194 3.90378178,3.81070026 3.94214902,3.73363732 C3.78458001,4.04122785 3.58509459,4.26994519 3.16121155,4.68605227 C2.98176955,4.86220247 2.97288432,4.87097889 2.90992628,4.93532479 C2.61725818,5.23444452 2.5,5.42010062 2.5,5.54545455 C2.5,6.17650379 2.80773239,6.75730187 3.32029239,7.12395371 L3.39685438,7.19154544 C3.75374206,7.57831495 3.99277879,8.2093292 3.9493869,8.78827068 C3.89147511,9.56093883 3.3675769,10.1543518 2.42768589,10.403883 L2.28422483,10.4203943 C1.93070408,10.4096699 0.5,11.7768334 0.5,12 L0.5,14.5 L6.5,14.5 L6.5,11 C6.5,10.7960725 6.54856468,10.5996619 6.64132658,10.4112416 L6.56485121,10.4018397 Z M7.69139791,9.7980288 L8.2086673,10.1452474 L7.75771321,10.5750948 C7.57359528,10.7505952 7.5,10.8908966 7.5,11 L7.5,15.5 L-0.5,15.5 L-0.5,12 C-0.5,11.2359537 1.27420123,9.51472368 2.21859274,9.42425112 C2.72336996,9.27939555 2.92779367,9.03894809 2.9521839,8.71352991 C2.97290774,8.43702924 2.85123446,8.09805289 2.68977212,7.90169538 C1.94747627,7.34801443 1.5,6.48355492 1.5,5.54545455 C1.5,5.07558764 1.73009046,4.711283 2.19515315,4.23596839 C2.26510476,4.16447476 2.27435843,4.15533441 2.46068061,3.97243023 C2.8076081,3.63186698 2.96117124,3.45567553 3.05474326,3.27252157 C3.25989213,2.87097177 3.6863399,2.7787868 4.21605092,2.85412404 L4.36222104,2.89848087 C4.46859433,2.94960039 4.58100641,3.00235416 4.71730401,3.06535013 C4.78414833,3.09624518 5.11507539,3.24815433 5.20714164,3.29081507 C6.32009627,3.80652496 6.86377498,4.1424477 7.2281475,4.6746683 C7.40332196,4.95398605 7.5,5.24646063 7.5,5.54545455 C7.5,6.48371046 7.05237533,7.34830109 6.30985863,7.90197076 C6.14414197,8.10174882 6.02065427,8.4336374 6.039447,8.70356189 C6.0616202,9.02204093 6.26687298,9.26531366 6.77881782,9.42246878 C7.0603892,9.44044704 7.35977365,9.57542503 7.69139791,9.7980288 Z"/><path d="M3.94214902,3.73363732 C3.78458001,4.04122785 3.58509459,4.26994519 3.16121155,4.68605227 C2.98176955,4.86220247 2.97288432,4.87097889 2.90992628,4.93532479 C2.61725818,5.23444452 2.5,5.42010062 2.5,5.54545455 C2.5,6.62284581 3.39339779,7.5 4.5,7.5 C5.60660221,7.5 6.5,6.62284581 6.5,5.54545455 C6.5,5.44961935 6.46236447,5.33576271 6.39216745,5.22304821 C6.18001009,4.91358984 5.72799049,4.63430052 4.78671389,4.19814109 C4.69668027,4.1564222 4.36634741,4.00478582 4.2977552,3.9730829 C4.18687452,3.9218345 4.09080504,3.87691591 4.00042268,3.83391713 C3.91888708,3.82199172 3.90378216,3.81069951 3.94214902,3.73363732 Z M4.36222104,2.89848087 C4.46859433,2.94960039 4.58100641,3.00235416 4.71730401,3.06535013 C4.78414833,3.09624518 5.11507539,3.24815433 5.20714164,3.29081507 C6.32009627,3.80652496 6.86377498,4.1424477 7.2281475,4.6746683 C7.40332196,4.95398605 7.5,5.24646063 7.5,5.54545455 C7.5,7.17927933 6.15482153,8.5 4.5,8.5 C2.84517847,8.5 1.5,7.17927933 1.5,5.54545455 C1.5,5.07558764 1.73009046,4.711283 2.19515315,4.23596839 C2.26510476,4.16447476 2.27435843,4.15533441 2.46068061,3.97243023 C2.8076081,3.63186698 2.96117124,3.45567553 3.05474326,3.27252157 C3.25989213,2.87097177 3.6863399,2.7787868 4.21605092,2.85412404 L4.36222104,2.89848087 Z"/><path d="M6.61545472,10.4665899 C6.7740939,10.4197201 6.73836113,10.4249961 6.74649263,10.4271776 C6.75454194,10.4293371 6.76294917,10.4318479 6.77169958,10.434706 C6.79865688,10.4082232 6.82593186,10.3811749 6.85355339,10.3535534 L6.62343915,10.4488698 C6.62073451,10.4547688 6.61807299,10.4606755 6.61545472,10.4665899 Z M4.5,11.5 C3.50025664,11.5 2.98184808,11.1889549 2.14644661,10.3535534 C2.22316187,10.4302687 2.22122763,10.430416 2.11657425,10.4811571 C1.91860791,10.5771407 1.661406,10.7616166 1.39468192,10.9987047 C0.925922693,11.4153795 0.5,11.9605606 0.5,12 L0.5,14.5 L6.5,14.5 L6.5,11 C6.5,10.8792701 6.51702152,10.7611748 6.55015833,10.6458124 C5.87931124,11.2626629 5.37329233,11.5 4.5,11.5 Z M7.75771321,10.5750948 C7.57359528,10.7505952 7.5,10.8908966 7.5,11 L7.5,15.5 L-0.5,15.5 L-0.5,12 C-0.5,11.5544394 0.0357250346,10.8687114 0.730318081,10.2512953 C1.59633568,9.48150192 2.33194812,9.12484134 2.85355339,9.64644661 C3.51815192,10.3110451 3.83307669,10.5 4.5,10.5 C5.16692331,10.5 5.48184808,10.3110451 6.5,9.5 L6.14644661,9.64644661 C6.54882884,9.24406438 7.077375,9.38586419 7.69139787,9.79802877 L8.20866734,10.1452474 L7.75771321,10.5750948 Z"/></g><g transform="translate(22.000000, 12.000000)" fill="#000000" fill-rule="nonzero"><path d="M2.5,11 L2.5,14.5 L8.5,14.5 L8.5,10.5 C8.5,10.612746 8.44366108,10.5516461 8.32113843,10.4686468 C8.11795399,10.3310058 7.82292883,10.1732879 7.48059853,10.0176832 C6.85816001,9.73475664 6.15389009,9.5 6,9.5 L5.41464715,9.5 C5.20872894,10.0825962 4.65310941,10.5 4,10.5 C3.34689059,10.5 2.79127106,10.0825962 2.58535285,9.5 L2,9.5 C1.9438171,9.5 1.80609593,9.53378143 1.62267552,9.59134578 C2.19719601,10.0180124 2.5,10.4786176 2.5,11 Z M0.278709062,9.0304085 C0.986605602,8.72298637 1.67891638,8.5 2,8.5 L3.5,8.5 L3.5,9 C3.5,9.27614238 3.72385762,9.5 4,9.5 C4.27614238,9.5 4.5,9.27614238 4.5,9 L4.5,8.5 L6,8.5 C6.89440613,8.5 9.5,9.68436085 9.5,10.5 L9.5,15.5 L1.5,15.5 L1.5,11 C1.5,10.7476723 1.12268937,10.3703617 0.276392982,9.94721349 C0.266858064,9.94245905 0.266858064,9.94245905 0.257179846,9.9376854 L-0.712314805,9.4607859 L0.278709062,9.0304085 Z"/><path d="M4,8.5 C3.83143865,8.5 3.66443657,8.48737972 3.5,8.46250496 L3.5,9 C3.5,9.27614238 3.72385762,9.5 4,9.5 C4.27614238,9.5 4.5,9.27614238 4.5,9 L4.5,8.46250496 C4.33556343,8.48737972 4.16856135,8.5 4,8.5 Z M5.5,9 C5.5,9.82842712 4.82842712,10.5 4,10.5 C3.17157288,10.5 2.5,9.82842712 2.5,9 L2.5,7.09422761 L3.17679709,7.3500666 C3.43817796,7.44887231 3.7153779,7.5 4,7.5 C4.2846221,7.5 4.56182204,7.44887231 4.82320291,7.3500666 L5.5,7.09422761 L5.5,9 Z"/><polygon points="8 15 7 15 7 12.5 9 12.5 9 13.5 8 13.5"/><path d="M5.88151234,3.90645201 C5.51782003,3.13910121 5.3214529,2.96153846 4.58333333,2.96153846 L2.25,2.96153846 C2.24063352,2.96153846 2.16666667,3.03956942 2.16666667,3.07692308 C2.16666667,3.37765793 1.978415,3.88568614 1.58366514,4.72668903 C1.58340243,4.79203346 1.58333413,4.86594106 1.58333333,4.97902098 C1.58333333,6.37517421 2.66931965,7.5 4,7.5 C5.33068035,7.5 6.41666667,6.37517421 6.41666667,4.97902098 C6.41666616,4.90616501 6.41663771,4.84961751 6.41654737,4.80114474 C6.23132464,4.56913169 6.0544711,4.27137598 5.88151234,3.90645201 Z M7.41564625,4.61033044 C7.41649501,4.71659156 7.41666791,4.80036597 7.41666667,4.97902098 C7.41666667,6.91974903 5.89098069,8.5 4,8.5 C2.10901931,8.5 0.58333333,6.91974903 0.58333333,4.97902098 C0.583332078,4.79984668 0.583506479,4.71581737 0.584362557,4.6092311 L0.632507428,4.39914054 C0.98178608,3.66204078 1.16666667,3.17427403 1.16666667,3.07692308 C1.16666667,2.49889212 1.67603315,1.96153846 2.25,1.96153846 L4.58333333,1.96153846 C5.78965821,1.96153846 6.27384664,2.39936034 6.78515432,3.47816336 C6.95857798,3.8440682 7.12599473,4.10914349 7.27883453,4.27065872 L7.41407468,4.41357532 L7.41564625,4.61033044 Z"/><path d="M1.29166667,2.46153846 C1.29166667,2.49708178 1.29253377,2.5356146 1.29426878,2.57711763 C1.48085396,2.22288697 1.84971739,1.96153846 2.25,1.96153846 L2.43471559,1.96153846 C2.340431,1.74018023 2.26979116,1.50192833 2.23348733,1.26876247 C1.53664723,1.48609385 1.29166667,1.91077407 1.29166667,2.46153846 Z M3.58839069,1.96868817 C3.58309187,1.9631131 3.5703668,1.96153846 3.41666667,1.96153846 C4.08333334,1.96153846 4.08333334,2.96153846 3.41666667,2.96153846 L2.25,2.96153846 C2.24063352,2.96153846 2.16666667,3.03956942 2.16666667,3.07692308 C2.16666667,3.38968425 1.9630105,3.92679943 1.53515432,4.82952894 C1.32788644,5.26684139 0.682225755,5.18399245 0.592083608,4.70851738 C0.392109989,3.65371145 0.291666667,2.91197614 0.291666667,2.46153846 C0.291666667,1.30379259 1.00930174,0.367307089 2.67970994,0.15849308 C3.03905053,0.113572712 3.32547823,0.453676839 3.22009001,0.800140153 C3.16379035,0.985225038 3.22126414,1.29475905 3.37476823,1.61592854 C3.44024368,1.75291979 3.51708477,1.8782428 3.58615032,1.96577051 L3.58839069,1.96868817 Z"/><path d="M5.75,-0.5 C6.96281532,-0.5 7.70833333,0.0617718146 7.70833333,1.23076923 C7.70833333,1.87173774 7.60986768,3.01437212 7.41319326,4.67421785 C7.36332733,5.09506437 6.84533819,5.26692944 6.55378967,4.95936178 C6.31791377,4.71052566 6.09669769,4.36046945 5.88151234,3.90645201 C5.51782003,3.13910121 5.3214529,2.96153846 4.58333333,2.96153846 L3.41666667,2.96153846 C2.90686617,2.96153846 2.36700593,2.07969658 2.2316734,1.31826519 C2.0433868,0.258894457 2.65784757,-0.5 4,-0.5 L5.75,-0.5 Z M5.75,0.5 L5.42853403,0.5 L4,0.5 C3.28833299,0.5 3.13546737,0.688797851 3.21624327,1.14327327 C3.25474511,1.35989903 3.35538387,1.60728162 3.48307553,1.81586126 C3.51766938,1.87236905 3.55205715,1.92215532 3.58278497,1.96153846 L4.58333333,1.96153846 C5.63039034,1.96153846 6.1334067,2.29138319 6.58232836,3.08392056 C6.66635644,2.24003736 6.70833333,1.62082149 6.70833333,1.23076923 C6.70833333,0.685480932 6.46218468,0.5 5.75,0.5 Z"/></g><g transform="translate(8.000000, 5.000000)" fill="#000000" fill-rule="nonzero"><path d="M10.7394094,17.8761288 C10.3943998,18.3073908 9.76510742,18.3773122 9.33384557,18.0323027 C9.29127896,17.9969419 9.29127896,17.9969419 9.25143377,17.9585406 L8.13697579,16.8440825 C8.08442746,16.7915342 8.03867375,16.7341955 7.99993862,16.6732857 C7.96074303,16.73497 7.9148476,16.7922592 7.86302427,16.8440825 L6.74856618,17.9585406 C6.35804191,18.3490648 5.72487699,18.3490648 5.33435266,17.9585406 C5.29595084,17.9186948 5.29595084,17.9186948 5.26059064,17.8761288 L3.95052101,16.2385418 C2.92707067,16.4797133 2.18152069,16.7182567 1.7236068,16.9472136 C0.87731063,17.3703617 0.5,17.7476723 0.5,18 L0.5,21.5 L15.5,21.5 L15.5,18 C15.5,17.7476723 15.1226894,17.3703617 14.2763932,16.9472136 C13.8184793,16.7182567 13.0729293,16.4797133 12.049479,16.2385418 L10.7394094,17.8761288 Z M8.13541236,15.9353754 L7.99910415,15.8966899 L7.86461488,15.9350384 C7.8254066,16.1253983 7.84270631,16.3216096 7.91216637,16.5 L8.08773215,16.5 C8.15838386,16.318963 8.17415036,16.1231601 8.13541236,15.9353754 Z M11.9205556,15.1831185 C13.196643,15.4675423 14.1265601,15.754263 14.7236068,16.0527864 C15.8773106,16.6296383 16.5,17.2523277 16.5,18 L16.5,22.5 L-0.5,22.5 L-0.5,18 C-0.5,17.2523277 0.12268937,16.6296383 1.27639321,16.0527864 C1.87343995,15.754263 2.80335703,15.4675423 4.0794445,15.1831185 L4.54291718,15.0798163 L4.66998449,15.5373446 L6.04145943,17.2514338 L7.15591755,16.1369756 L6.97429241,15.5 L9.02476826,15.5 L8.84411994,16.1365132 L9.95854059,17.2514338 L11.3300013,15.5371079 L11.4570834,15.0798164 L11.9205556,15.1831185 Z"/><path d="M8.13697602,15.4298686 C8.21297715,15.3538676 8.30073383,15.2906162 8.39686892,15.2425485 L9.92165458,14.4801557 C9.97325419,14.327319 10,14.1658258 10,14 L10,13.1311648 C9.36978124,13.3732129 8.69397026,13.5 8,13.5 C7.30602974,13.5 6.63021876,13.3732129 6,13.1311648 L6,14 C6,14.1658258 6.02674581,14.327319 6.07834541,14.4801557 L7.60313126,15.2425486 C7.73008401,15.306025 7.83963567,15.3942262 7.92698502,15.5 L8.07315381,15.5 C8.09321716,15.475747 8.11450371,15.452341 8.13697602,15.4298686 Z M8.11762705,15.862894 C8.09101642,15.7695698 8.05126224,15.6813174 7.99999488,15.6005656 C7.94815302,15.6820544 7.90848976,15.7705499 7.88211342,15.8634867 L7.99910429,15.8966898 L8.11762705,15.862894 Z M7.25943394,16.5 L7.15595775,16.137106 L5.30607213,15.212053 L5.2324445,15.0538431 C5.08004724,14.7263742 5,14.368364 5,14 L5,11.4842605 L5.74692891,11.9084797 C6.42577071,12.2940287 7.19691459,12.5 8,12.5 C8.80308541,12.5 9.57422929,12.2940287 10.2530711,11.9084797 L11,11.4842605 L11,14 C11,14.3683641 10.9199527,14.7263743 10.7675554,15.0538432 L10.6939278,15.2120531 L10.5378473,15.2900933 L8.84408278,16.1369754 L8.7409589,16.5 L7.25943394,16.5 Z"/><path d="M7.05860889,17.5 L8.94139111,17.5 L9.56639111,22.5 L6.43360889,22.5 L7.05860889,17.5 Z M7.56639111,21.5 L8.43360889,21.5 L8.05860889,18.5 L7.94139111,18.5 L7.56639111,21.5 Z"/><path d="M6.69371294,17 C6.69371294,16.4477152 7.14142819,16 7.69371294,16 L8.30628706,16 C8.41376942,16 8.52054889,16.0173279 8.62251468,16.0513167 C9.1464581,16.2259643 9.42961812,16.7922844 9.25497036,17.3162278 L9.0883037,17.8162278 C8.95218966,18.2245699 8.57005081,18.5 8.13962039,18.5 L7.86037961,18.5 C7.42994919,18.5 7.04781034,18.2245699 6.91169631,17.8162278 L6.74502964,17.3162278 C6.71104081,17.2142611 6.69371294,17.107482 6.69371294,17 Z M7.86037961,17.5 L8.13962039,17.5 L8.30628706,17 L7.693713,17.0000002 L7.86037961,17.5 Z"/><path d="M11.5527864,6.2236068 C10.8785879,4.87520987 10.4408431,4.5 9,4.5 L5,4.5 C4.77614237,4.5 4.5,4.77614237 4.5,5 C4.5,5.43508312 4.17413782,6.26078872 3.50089105,7.61591237 C3.50017073,7.7402003 3.5,7.86998632 3.5,8.09090909 C3.5,10.5239084 5.51268593,12.5 8,12.5 C10.487314,12.5 12.5,10.5239083 12.5,8.09090909 C12.5,7.9171423 12.4998947,7.79992534 12.4994996,7.69734365 C12.1754642,7.33228744 11.8617296,6.84149303 11.5527864,6.2236068 Z M13.4982604,7.49406367 C13.4997069,7.66573601 13.5,7.80036669 13.5,8.09090909 C13.5,11.0803419 11.0355334,13.5 8,13.5 C4.9644666,13.5 2.5,11.0803419 2.5,8.09090909 C2.5,7.79952176 2.50029566,7.664485 2.50175468,7.4922898 L2.50273562,7.37651689 L2.5545037,7.27295824 C3.17710032,6.02749433 3.5,5.21996437 3.5,5 C3.5,4.22385763 4.22385763,3.5 5,3.5 L9,3.5 C10.8924902,3.5 11.6214121,4.12479013 12.4472136,5.77639318 C12.7579542,6.39787434 13.0623758,6.85476889 13.3521355,7.14502742 L13.4965382,7.28967876 L13.4982604,7.49406367 Z"/><path d="M3,4 C3,4.40736467 3.06944042,5.03500235 3.20860179,5.87651708 C3.40156523,5.42203182 3.5,5.12147708 3.5,5 C3.5,4.22385763 4.22385763,3.5 5,3.5 L5.86491425,3.5 C5.55201712,2.9567409 5.31975326,2.27252399 5.28621628,1.65935521 C3.60967836,2.00932135 3,2.87827131 3,4 Z M6.31905566,1.21655114 C6.19626042,1.59921449 6.30794363,2.16937427 6.6012821,2.75114721 C6.72556132,2.99762795 6.87269113,3.2241971 7.00878939,3.38598218 C7.06946536,3.45810997 7.12279466,3.5 7,3.5 C7.66666667,3.5 7.66666667,4.5 7,4.5 L5,4.5 C4.77614237,4.5 4.5,4.77614237 4.5,5 C4.5,5.44644814 4.15682829,6.30437742 3.44721359,7.7236068 C3.23430521,8.14942356 2.60307616,8.06489057 2.50970966,7.59805807 C2.17023981,5.90070878 2,4.70903013 2,4 C2,2.26247339 3.11472394,0.883566673 5.78413077,0.567250101 C6.14564286,0.524412021 6.43028841,0.869919692 6.31905566,1.21655114 Z"/><path d="M10.4489777,0.5 C10.4444985,0.5 10.4444985,0.5 10.4444544,-0.5 L11,-0.5 C12.8969767,-0.5 14,0.287873784 14,2 C14,3.02698293 13.8319514,4.87551732 13.4961389,7.56201736 C13.4445313,7.97487849 12.9406554,8.14776221 12.6464466,7.85355337 C12.2699496,7.4770563 11.9081959,6.93442579 11.5527864,6.2236068 C10.8785879,4.87520987 10.4408431,4.5 9,4.5 L7,4.5 C6.37286351,4.5 5.52694868,3.19019639 5.32106391,2.09214427 C5.03210747,0.551043257 5.92987358,-0.5 8,-0.5 L10.4488526,-0.5 C10.4489489,-0.499999881 10.4489489,-0.49965562 10.4489777,0.5 Z M8,0.5 C6.54929308,0.5 6.13164253,0.988956743 6.30393609,1.90785573 C6.37714155,2.29828483 6.5643191,2.73442669 6.80283219,3.10373728 C6.90360954,3.25977964 7.00577467,3.39068526 7.09048682,3.47616059 C7.11140615,3.49726838 7.11558325,3.5 7,3.5 L9,3.5 C10.8924902,3.5 11.6214121,4.12479013 12.4472136,5.77639322 C12.5174304,5.91682692 12.5873244,6.04885619 12.6567992,6.17245744 C12.8856543,4.20327518 13,2.80930799 13,2 C13,0.92641193 12.4030233,0.5 11,0.5 L8,0.5 Z"/><path d="M5.09872651,15.1083803 L4.6699988,15.537108 L6.04145943,17.2514338 L7.15591747,16.1369757 L5.09872651,15.1083803 Z M6.74856618,17.9585406 C6.35804191,18.3490648 5.72487699,18.3490648 5.33435266,17.9585406 C5.29595084,17.9186948 5.29595084,17.9186948 5.26059064,17.8761288 L3.88913003,16.1618031 C3.5708171,15.763912 3.6025863,15.1903068 3.96289203,14.8300012 L4.39161966,14.4012736 C4.69597993,14.0969132 5.16095147,14.0214587 5.5459401,14.2139531 L7.60313119,15.2425486 C8.09710959,15.4895379 8.29733392,16.0902109 8.05034475,16.5841891 C8.00227723,16.6803243 7.93902548,16.7680814 7.86302398,16.8440828 L6.74856618,17.9585406 Z"/><path d="M9.95854059,17.2514338 L11.3300012,15.537108 L10.9012735,15.1083803 L8.8440825,16.1369757 L9.95854059,17.2514338 Z M10.4540598,14.2139532 C10.8390485,14.0214587 11.30402,14.0969132 11.6083803,14.4012735 L12.037108,14.8300012 C12.3974136,15.1903069 12.4291828,15.763912 12.11087,16.161803 L10.7394094,17.8761288 C10.3943998,18.3073908 9.76510742,18.3773122 9.33384557,18.0323027 C9.29127896,17.9969419 9.29127896,17.9969419 9.25143377,17.9585406 L8.13697578,16.8440825 C7.74645144,16.4535583 7.74645144,15.8203933 8.13697602,15.4298686 C8.21297715,15.3538676 8.30073383,15.2906162 8.3968684,15.2425488 L10.4540598,14.2139532 Z"/></g></g></g><text x="0" y="39" fill="#000000" font-size="5px" font-weight="bold" font-family="'Helvetica Neue', Helvetica, Arial-Unicode, Arial, Sans-serif">Created by IOHK Design Department</text><text x="0" y="44" fill="#000000" font-size="5px" font-weight="bold" font-family="'Helvetica Neue', Helvetica, Arial-Unicode, Arial, Sans-serif">from the Noun Project</text></svg>